<?xml version="1.0" standalone="no"?>
<!DOCTYPE svg PUBLIC "-//W3C//DTD SVG 20010904//EN"
 "http://www.w3.org/TR/2001/REC-SVG-20010904/DTD/svg10.dtd">
<svg version="1.0" xmlns="http://www.w3.org/2000/svg"
 width="1403.000000pt" height="1403.000000pt" viewBox="0 0 1403.000000 1403.000000"
 preserveAspectRatio="xMidYMid meet">
<metadata>
Created by potrace 1.11, written by Peter Selinger 2001-2013
</metadata>
<g transform="translate(0.000000,1403.000000) scale(0.100000,-0.100000)"
fill="#000000" stroke="none">
<path d="M3020 10635 l0 -335 335 0 335 0 0 335 0 335 -335 0 -335 0 0 -335z"/>
<path d="M4020 10635 l0 -335 335 0 335 0 0 335 0 335 -335 0 -335 0 0 -335z"/>
<path d="M5060 10635 l0 -335 335 0 335 0 0 335 0 335 -335 0 -335 0 0 -335z"/>
<path d="M6104 10635 c0 -187 2 -262 3 -167 2 95 2 248 0 340 -1 92 -3 14 -3
-173z"/>
<path d="M6764 10635 c0 -187 2 -262 3 -167 2 95 2 248 0 340 -1 92 -3 14 -3
-173z"/>
<path d="M10264 10635 c0 -187 2 -262 3 -167 2 95 2 248 0 340 -1 92 -3 14 -3
-173z"/>
<path d="M10924 10635 c0 -187 2 -262 3 -167 2 95 2 248 0 340 -1 92 -3 14 -3
-173z"/>
<path d="M11300 10635 l0 -334 335 -3 335 -3 0 338 0 337 -335 0 -335 0 0
-335z"/>
<path d="M2020 9628 l0 -338 335 0 335 0 0 338 0 337 -335 0 -335 0 0 -337z"/>
<path d="M3020 9630 l0 -340 335 0 335 0 0 340 0 340 -335 0 -335 0 0 -340z"/>
<path d="M4020 9630 l0 -340 335 0 335 0 0 340 0 340 -335 0 -335 0 0 -340z"/>
<path d="M5060 9630 l0 -340 335 0 335 0 0 340 0 340 -335 0 -335 0 0 -340z"/>
<path d="M6100 9628 l0 -338 335 0 335 0 0 338 0 337 -335 0 -335 0 0 -337z"/>
<path d="M10260 9628 l0 -338 335 0 335 0 0 338 0 337 -335 0 -335 0 0 -337z"/>
<path d="M11297 9963 c-4 -3 -7 -156 -7 -340 l0 -333 340 0 340 0 0 340 0 340
-333 0 c-184 0 -337 -3 -340 -7z"/>
<path d="M3020 8630 l0 -340 340 0 340 0 -2 338 -3 337 -337 3 -338 2 0 -340z"/>
<path d="M4020 8630 l0 -340 340 0 340 0 -2 338 -3 337 -337 3 -338 2 0 -340z"/>
<path d="M5060 8630 l0 -340 340 0 340 0 -2 338 -3 337 -337 3 -338 3 0 -341z"/>
<path d="M10588 8963 l-338 -3 0 -335 0 -335 340 0 340 0 0 340 c0 187 -1 339
-2 338 -2 -2 -155 -4 -340 -5z"/>
<path d="M11297 8964 c-4 -4 -7 -157 -7 -341 l0 -333 340 0 340 0 0 340 0 339
-333 1 c-183 0 -336 -3 -340 -6z"/>
<path d="M2020 8625 l0 -335 335 0 335 0 0 335 0 335 -335 0 -335 0 0 -335z"/>
<path d="M6100 8625 l0 -335 340 0 340 0 0 335 0 335 -340 0 -340 0 0 -335z"/>
<path d="M2690 7584 c-16 -41 -13 -1113 3 -1144 12 -25 13 -25 168 -28 122 -2
159 1 174 12 19 14 20 30 25 300 l5 287 138 -168 137 -168 0 -117 c0 -93 3
-120 16 -132 23 -23 315 -23 338 0 14 14 16 81 16 588 0 431 -3 575 -12 584
-18 18 -332 17 -347 -1 -6 -9 -12 -84 -13 -202 l-3 -189 -168 192 c-93 106
-177 197 -187 202 -10 6 -78 10 -150 10 l-130 0 -10 -26z"/>
<path d="M3960 7591 c-6 -13 -10 -214 -10 -584 0 -534 1 -565 18 -580 17 -15
62 -17 435 -17 l417 0 16 25 c13 19 15 47 12 145 -3 107 -5 123 -22 136 -16
11 -68 14 -258 14 l-238 0 0 70 0 70 174 0 c145 0 177 3 190 16 23 23 23 245
0 268 -13 13 -45 16 -190 16 l-174 0 0 65 0 65 244 0 c296 0 276 -11 276 152
0 58 -4 118 -10 132 l-10 26 -429 0 c-415 0 -431 -1 -441 -19z"/>
<path d="M4989 7583 c-6 -16 -9 -79 -7 -146 4 -152 -2 -147 175 -147 l133 0 0
-424 c0 -373 2 -426 16 -440 23 -24 335 -24 358 0 14 14 16 67 16 440 l0 424
135 0 c178 0 175 -3 175 154 0 63 -4 126 -10 140 l-10 26 -485 0 -485 0 -11
-27z"/>
<path d="M6543 7599 c-10 -10 -13 -142 -13 -591 0 -561 1 -578 19 -588 28 -14
723 -14 793 1 95 20 145 55 184 129 15 29 19 63 22 191 4 166 -3 214 -41 270
-20 30 -79 68 -130 84 -17 4 -15 8 12 36 42 41 54 95 49 214 -6 140 -37 196
-138 243 -30 14 -87 17 -390 20 -275 2 -358 0 -367 -9z m543 -283 c15 -12 19
-27 19 -76 0 -81 -12 -90 -122 -90 l-83 0 0 90 0 90 83 0 c56 0 90 -5 103 -14z
m78 -442 c11 -11 16 -34 16 -75 0 -99 0 -99 -150 -99 l-130 0 0 95 0 95 124 0
c100 0 128 -3 140 -16z"/>
<path d="M7679 7583 c-7 -18 -9 -106 -7 -238 3 -192 5 -213 25 -251 11 -23 82
-124 157 -225 l136 -183 0 -116 c0 -167 -8 -160 191 -160 91 0 169 4 180 10
17 10 19 22 19 135 l0 123 132 179 c198 268 182 226 186 496 2 166 0 232 -9
243 -9 11 -45 14 -175 14 -151 0 -164 -1 -174 -19 -6 -11 -10 -91 -10 -188 l0
-169 -50 -79 c-27 -44 -56 -84 -63 -89 -31 -20 -62 3 -114 87 l-53 84 0 175
c0 122 -4 178 -12 186 -8 8 -63 12 -180 12 l-168 0 -11 -27z"/>
<path d="M8840 7591 c-5 -11 -10 -76 -10 -145 0 -161 -5 -156 177 -156 l133 0
0 -430 c0 -414 1 -430 19 -440 11 -6 88 -10 179 -10 141 0 161 2 175 18 15 17
17 62 17 440 l0 422 131 0 c72 0 139 5 150 10 17 10 19 22 19 148 0 94 -4 142
-12 150 -9 9 -131 12 -490 12 -462 0 -478 -1 -488 -19z"/>
<path d="M10020 7600 c-13 -8 -15 -84 -15 -585 0 -559 1 -577 19 -591 16 -12
92 -14 432 -14 362 0 415 2 428 16 13 12 16 40 16 144 0 122 -1 130 -22 144
-19 13 -61 16 -260 16 l-238 0 0 70 0 70 179 0 c154 0 180 2 192 17 10 11 14
49 14 133 0 84 -4 122 -14 133 -12 15 -38 17 -192 17 l-179 0 0 65 0 65 250 0
c236 0 250 1 260 19 15 28 13 264 -2 279 -15 15 -844 17 -868 2z"/>
<path d="M11279 7594 c-75 -23 -140 -72 -169 -129 -23 -46 -25 -60 -28 -216
-4 -201 4 -238 62 -295 55 -55 120 -77 306 -103 162 -23 180 -31 180 -76 0
-43 -12 -45 -261 -45 -131 0 -249 -4 -263 -10 l-26 -10 0 -139 c0 -131 1 -141
20 -151 15 -8 124 -10 348 -8 317 3 329 4 386 27 79 32 140 93 160 162 22 72
22 315 1 387 -33 109 -114 152 -345 183 -185 25 -192 28 -188 77 l3 37 226 5
c171 4 230 8 242 19 14 11 17 35 17 145 0 89 -4 136 -12 144 -19 19 -597 15
-659 -4z"/>
<path d="M2026 6854 c-14 -13 -16 -47 -16 -214 0 -167 2 -201 16 -214 13 -14
47 -16 214 -16 194 0 199 1 214 22 13 18 16 57 16 214 0 172 -2 193 -18 207
-27 25 -402 25 -426 1z"/>
<path d="M2020 5405 l0 -335 335 0 335 0 0 335 0 335 -335 0 -335 0 0 -335z"/>
<path d="M3020 5400 l0 -340 338 2 337 3 3 338 2 337 -340 0 -340 0 0 -340z"/>
<path d="M4020 5400 l0 -340 338 2 337 3 3 338 2 337 -340 0 -340 0 0 -340z"/>
<path d="M5060 5400 l0 -341 338 3 337 3 3 338 2 337 -340 0 -340 0 0 -340z"/>
<path d="M6100 5405 l0 -335 340 0 340 0 0 335 0 335 -340 0 -340 0 0 -335z"/>
<path d="M10250 5405 l0 -334 340 -3 340 -3 0 338 0 337 -340 0 -340 0 0 -335z"/>
<path d="M11292 5403 l3 -338 338 -3 337 -3 0 341 0 340 -340 0 -340 0 2 -337z"/>
<path d="M2020 4403 l0 -338 335 0 335 0 0 338 0 337 -335 0 -335 0 0 -337z"/>
<path d="M3020 4400 l0 -340 335 0 335 0 0 340 0 340 -335 0 -335 0 0 -340z"/>
<path d="M4020 4400 l0 -340 335 0 335 0 0 340 0 340 -335 0 -335 0 0 -340z"/>
<path d="M5060 4400 l0 -340 335 0 335 0 0 340 0 340 -335 0 -335 0 0 -340z"/>
<path d="M6100 4403 l0 -338 335 0 335 0 0 338 0 337 -335 0 -335 0 0 -337z"/>
<path d="M10260 4403 l0 -338 335 0 335 0 0 338 0 337 -335 0 -335 0 0 -337z"/>
<path d="M11292 4403 l3 -338 338 -3 337 -2 0 340 0 340 -340 0 -340 0 2 -337z"/>
<path d="M11633 3733 l-333 -3 0 -335 0 -335 335 0 335 0 0 340 c0 187 -1 339
-2 338 -2 -2 -153 -4 -335 -5z"/>
<path d="M3020 3395 l0 -335 335 0 335 0 0 335 0 335 -335 0 -335 0 0 -335z"/>
<path d="M4020 3395 l0 -335 335 0 335 0 0 335 0 335 -335 0 -335 0 0 -335z"/>
<path d="M5060 3395 l0 -335 335 0 335 0 0 335 0 335 -335 0 -335 0 0 -335z"/>
<path d="M6104 3395 c0 -187 2 -262 3 -167 2 95 2 248 0 340 -1 92 -3 14 -3
-173z"/>
<path d="M6764 3395 c0 -187 2 -262 3 -167 2 95 2 248 0 340 -1 92 -3 14 -3
-173z"/>
<path d="M10264 3395 c0 -187 2 -262 3 -167 2 95 2 248 0 340 -1 92 -3 14 -3
-173z"/>
<path d="M10924 3395 c0 -187 2 -262 3 -167 2 95 2 248 0 340 -1 92 -3 14 -3
-173z"/>
</g>
</svg>
