<svg version="1" xmlns="http://www.w3.org/2000/svg" width="682.667" height="682.667" viewBox="0 0 512.000000 512.000000"><path d="M438.7 24.2c.4 36.1 1.3 87.9 1.8 99.2.2 6.6.8 10.2 1.6 10.7.8.4 4.3 1.1 7.9 1.4 3.6.3 8.5 1.5 11 2.5 2.5 1.1 7.2 2.2 10.5 2.6 3.3.3 6.9.8 8 1.1 1.9.5 4.9.7 24.8 1.7l7.7.4v-8.9l-22 .3c-17.1.2-22.1 0-22.5-1-.2-.7-.5-20-.5-43 0-22.9-.3-52.8-.6-66.5L465.7 0h-27.2l.2 24.2zM244 13.1c-9.2 2.5-16.1 6.4-26.5 14.8-15.1 12.1-23.6 24-26.3 36.6-2.3 10.8-3.6 27-2.4 30.5.7 1.8 1.2 4.6 1.2 6.1 0 2.9-1.4 4.6-2.5 2.9-1-1.6-4.2-1.2-4.9.6-1 2.5-.7 14 .4 16.9 1.3 3.4 3 2.3 3-2 0-1.9.5-3.7 1-4 1.2-.8 1.2-.1-.1 5.5-.6 2.5-1.2 7.8-1.3 11.8-.2 4-.7 7.6-1.2 8.1-1.2 1.1-36 1.9-118.1 2.8l-66.3.6v7.1c0 3.9.4 6.6.8 6.1.4-.6 2-1 3.7-1 1.7 0 5.9-.6 9.5-1.3 3.6-.7 8.5-1.5 11-1.8 2.4-.3 4.7-.7 5-.9.3-.2 2.6-.6 5-.9 2.5-.4 5.6-.9 7-1.1 11.9-2.2 33.1-3.1 93.5-4 19.3-.3 37.8-.8 41.2-1.1 8.1-.8 7.8-.9 7.5 2.9-.1 1.7.6 6.9 1.6 11.5l1.9 8.3-5.4 5.9c-3 3.2-6.6 6.3-8.1 6.8-4.5 1.7-27.2 5.3-35.7 5.7-8.4.3-18.7 1.8-24.4 3.5-1.9.5-12.5 1.2-23.5 1.5-34.2 1-50.3 2.3-54.7 4.5-5.9 3-14.7 17.5-18.8 31-1.1 3.6-2.9 9.8-4.2 13.8-1.2 4-3.1 8.4-4.2 9.8-1.1 1.4-3.4 6-5.1 10.2l-3.1 7.7-.3 121.7L0 512h307.5l2.9-8c3-8.6 5.5-11.4 10.9-12.5 1.8-.4 5.5-2 8.2-3.5 2.8-1.5 8.8-4 13.5-5.5 4.7-1.5 12.4-4.7 17.3-7.1 9.8-4.9 10.7-5.1 14.3-2.7 2.1 1.4 2.7 1.4 3.4.3 1-1.6-.5-5-2.2-5-.7 0-.6-.5.2-1.5.7-.8 1.6-1.2 2.1-.9.5.3 1.9-.6 3.1-2 2.8-3 16-7.6 22-7.6 15.3.1 28.9 8.8 40.3 25.8 3.9 5.8 4.5 7.4 4.5 12 0 8.3-3.8 13.8-11.5 16.6-4 1.5-4 1.5 5.7 1.5 6.8.1 9.8-.3 10.1-1.2.4-.9.7-.9 1.8.1.9.8 6 1.2 17.8 1.2 11.3 0 16.1-.3 15.1-1-1.3-.9-1.3-1.1 0-1.9.9-.6 1.9-.6 2.6 0 .8.7 1.5.6 2-.2s.3-1-.7-.4c-1 .5-1.1.5-.4-.3.6-.6 1.7-1.2 2.5-1.4.8-.2 2-1 2.7-1.9 1.2-1.6 8.7-2 10.9-.6.7.4 1.1 0 1-1.1 0-.9.5-1.6 1.2-1.5.6.2 1.2-.2 1.2-.9 0-.6.3-.9.6-.6.3.4-.2 2.1-1.1 4l-1.7 3.3 2-2.2c2.1-2.1 2.1-2.8 2.2-62.3v-60.1l-2.2.6c-8 2.5-8.5 2.9-9.9 10-2.1 10.6-2.5 10.7-9.3 2.3-3.2-4-7.2-10.2-8.8-13.8-1.6-3.6-3.5-7.9-4.3-9.5-1.6-3.6-3.3-64-3.4-126.5-.1-22.3-.4-47.6-.8-56.3l-.6-15.7h-3.6c-2.8 0-4.4.8-7 3.5-1.9 1.9-3.8 3.5-4.2 3.5-.5 0-.9.4-.9 1 0 2-8.6 13.9-9.7 13.5-1.6-.5-1.5-3.7-1.3 44 .2 43.9.6 58.9 2.6 79.9l.5 5.8-3-2.2c-1.7-1.2-3.1-2.8-3.1-3.6 0-.8-.9-1.4-1.9-1.4-1.1 0-2.2-.4-2.5-.9-.4-.5.3-.7 1.5-.4 1.9.5 2 .4 1-1.6-.8-1.4-.8-2.1-.1-2.1.5 0 1-.7 1-1.5s-.5-1.5-1.1-1.5c-.5 0-.8-.4-.4-.9.6-1.1-1.5-6.1-2.6-6.1-.7 0-4.1-9.6-5.3-15.3-1.1-4.8-14.9-31.7-18.4-35.7-1.9-2.3-4.5-4.1-6.4-4.6-1.8-.3-4.3-1.3-5.5-2.1-1.2-.8-8.9-3.4-17-5.8-8.1-2.3-18.8-5.4-23.7-6.9-4.8-1.4-9.7-2.6-10.8-2.6-1.1 0-6-2.3-10.8-5.1-8.6-4.9-30.4-13.4-32-12.4-.4.2-1.1 4-1.5 8.2-.3 4.3-1 9.4-1.5 11.3-.5 1.9-1.8 7.4-3 12.1l-2.1 8.6 2 9.9c1.1 5.6 2.5 18.3 3.1 29.4 1.2 21.6 2.5 41.9 3.9 61.5.6 7.1 1.3 17.3 1.6 22.5.3 5.2.9 13.8 1.2 19 .9 14.8.9 19-.2 19-.5 0-1-.8-1.1-1.8 0-.9-.4-4-.7-6.7-.4-2.8-1-7.7-1.3-11-.9-9.3-1.2-11.4-1.8-12.4-.4-.5-.8-5.6-1.1-11.3-.2-5.6-.7-13.5-1.1-17.3-.4-3.9-.5-9.3-.4-12 .9-16.5-.3-52.2-2-62.5-1.3-7.2-1.8-11.9-1.9-15.3-.1-1.5-.5-2.7-.9-2.7-.5 0-.7 2.3-.4 5.1.2 2.8-.1 5.6-.7 6.3-1.2 1.4-2.5 16.7-4 43.1-.6 10.8-.3 17.7 1 30 1 8.8 1.9 21.1 2 27.3.1 6.8 1 14.1 2.1 18.5.9 4 1.8 8.3 1.8 9.7 0 3.2 1.4 14.7 2.8 22.5.5 3.3 1 8.5 1 11.5.1 3.1.3 9.3.6 13.8s.2 8.2-.3 8.2c-.4 0-.8 3.4-.9 7.5-.1 7.9-1.4 11-4.6 11.9-1.6.4-1.7.7-.6 2.1 1.1 1.3 1 1.5-.3 1-1-.4-2.1.4-3.3 2.4-1 1.7-2.6 3.1-3.4 3.1-.9 0-2 .3-2.4.7-.3.4-1.5.8-2.5 1-2.2.3-2.5-1.1-4.1-18.7-.6-6.3-1.3-11.7-1.7-12-.6-.6.5 24.8 1.4 29.7.4 2.5.2 3.3-.9 3.3-.8 0-2 1.1-2.6 2.5-1.3 2.7-3.3 3.2-5 1.2-.6-.7-1-11.4-1-29.2 0-15.4-.3-29-.6-30.2-.2-1.2-.8-7.5-1.1-14-.4-6.5-1.3-16.5-2-22.3-1-7.4-1.1-10.8-.3-11.7.7-.9.7-2.6 0-5.5-.6-2.4-1.4-7.7-1.7-11.8-.4-4.1-1.5-13.1-2.5-20s-2.1-15.7-2.5-19.5c-1-10.9-2.3-16.3-5.9-26-1.9-5-4.3-11.5-5.4-14.5-1.1-3-3.5-8.6-5.2-12.4-3.1-6.5-3.1-7-1.5-8.2 1.5-1.1 1.6-1.6.5-2.9-.7-.8-1.1-1.8-.8-2 .7-.7 10.8 10.1 10.8 11.6 0 .8-.5.7-1.7-.2-1.5-1.3-1.6-1.2-.8.6 1.7 4 5.7 16.2 7.6 23 1 3.8 2.9 10.5 4.2 14.8l2.4 7.9.6-12.9c.4-7.1 1.5-16.4 2.6-20.8 1.1-4.4 2.2-11.7 2.5-16.2.3-4.4 1-10.2 1.7-12.7 1.2-4.7 1-7.3-1.3-19.2-1.6-8.3-3.4-11.4-9-15.4-4.5-3.3-4.4-3.9.2-1.5 3 1.5 7.2 6.5 8.4 9.9.6 1.8.7 1.8 2.7 0 2.1-1.9 2.1-1.8 4 .6 1 1.4 2.3 3 2.9 3.7.5.7 1 2.1 1 3.2 0 1.5-.5 1.8-2.2 1.3-2.1-.5-2.2-.4-.9 1.1.7.9 1.1 1.7.7 1.7-.4 0 .1 1.2 1.1 2.6 1.2 1.9 1.8 5.4 2.1 12.3.3 6.4.9 10.1 1.8 11.2 1.1 1.2 1.2 2.3.5 4.1-1.5 4.1.3 5.2 2.2 1.3 1.8-3.8 3.2-4.3 5.7-2 1.4 1.3 1.7.5 2.8-9 .7-5.7 1.9-12.3 2.8-14.7.8-2.4 1.8-7.5 2.1-11.4.6-7.9-.9-12.1-5.3-14.5l-2.3-1.2 2.4-3.1c1.2-1.7 3.5-5.4 5-8.1l2.8-5-3.4 3.2c-5.4 4.9-12.8 9.2-20.1 11.4-7.1 2.2-12.5 2.2-12 .1.1-.6-.5-1.2-1.3-1.2-.9 0-1.8-.8-2.1-1.8-.7-2.2-3.7-9.6-4.1-10.1-.2-.3-2.7-.6-5.6-.7-2.8-.2-6.1-.6-7.2-.8-1.1-.3-2.4-.5-2.8-.5-.4 0-1.9-.7-3.3-1.6-1.3-.9-2.9-1.3-3.4-1-.5.3-2.7-.3-4.9-1.5-2.2-1.1-4.7-2-5.4-2-1.7 0-6.7-4.8-6.7-6.4 0-.7.3-.6.8.2.7 1 1.5.8 3.5-.8s3.1-1.9 4.4-1.1c1.5.9 1.4 1-1 1.1-1.8 0-2.7.5-2.5 1.2.5 1.5 4 2.6 8.6 2.7 1.8.1 4.2 1 5.4 2.1 1.3 1.2 2.5 1.6 3.2 1.1 1.5-1.2 5.8-1.7 7.2-.8.7.4 1.4 0 1.8-.8.3-.8 1.3-1.5 2.1-1.5.9 0 1.3.4 1 1-.3.5-.3 1 .2 1.1 9.1.6 12.2.3 18.1-1.7 3.6-1.3 6.8-2.7 7.1-3.2.5-.7 3.6-2.3 5.1-2.6 1.8-.4 3-2.1 3-4.1 0-1.3.5-2.7 1-3 .6-.4 1 .7 1 2.4s.4 3.1.9 3.1c1.8 0 2-3.2.6-8.7-.8-3.1-1.2-6.7-.8-8.1.4-1.8.3-2.3-.6-1.7-.7.4-1 .9-.7 1.2.3.3-.8 1.6-2.3 2.9-1.6 1.3-3.2 3.5-3.5 4.8-.3 1.3-1.3 2.7-2.2 3-2 .8-8.7-4.3-8-6.1.3-.7.3-1.3 0-1.3-.2 0-.8.9-1.2 2.1-.8 2-.9 2-2.3.3-1.1-1.5-1.2-1.6 0-.9 1 .6 1.2.4.7-.4-.6-.9-1.2-.8-2.6.4-1.7 1.5-1.8 1.5-2.5-1.3-.7-3.3-3.3-5-4.1-2.8-.7 1.9-4 2.6-5.3 1.3-.8-.8-1.1-.8-1.1 0 0 1.4-7.2-.4-8.2-2-.5-.8-.9-.5-1.4.6-.7 1.8-5.4 2.4-5.4.6 0-.5-.5-.7-1-.4-.6.4-1.8-1.1-2.7-3.4-.9-2.3-2.1-4.1-2.7-4.1-.6 0-1.1-1.9-1.1-4.5 0-2.5.4-4.5 1-4.5.5 0 1.8-1.3 2.9-2.8 1.2-1.9 3.8-3.5 8.2-5 7.7-2.7 8.6-2.7 10.2-.1 1.1 1.8 1.1 2.1-.5 2.5-1 .3-2.2.4-2.7.4-.5-.1-1.6 1-2.6 2.4-.9 1.5-2 2.3-2.5 1.9-.4-.5-.5 0-.1 1.1.4 1.2 0 2.3-1.1 3.2-1 .7-1.3 1.4-.6 1.4.6 0 1.5-.5 1.8-1 .5-.8 1.1-.7 2.1.1 3.2 2.6 15.4 1.6 17.5-1.4.9-1.2-1.8-6.4-3.7-7.1-2.5-1 .2-4.4 4.1-5.2l3.5-.6-2.4-1.9c-1.3-1-4.2-2.1-6.5-2.5-7.1-1.1-6.2-2.8 1-2 3.5.4 7.5.9 8.9 1 6 .6 9.1 4.7 4.1 5.4-1.8.3-2 .6-1 1.8.6.8 1.7 1.4 2.4 1.4s2.4.9 3.8 2c2.3 1.8 11.7 4 11.7 2.8 0-1.6-5.7-10.3-9.1-13.9-3-3.2-4.3-4-4.8-3-.6 1-1.9.3-4.7-2.8-3.2-3.3-4.6-4.1-7.5-4.1-4.7 0-6-1.7-6.1-8l-.1-5.1-4.4.2c-2.3.2-4.6 0-5-.4-.4-.4-2.4.9-4.5 3-3.8 3.7-3.8 3.7-3.8 1.1 0-1.4.9-3.7 2-5.1 1.1-1.4 2-3.3 2-4.2 0-.9.5-2.6 1.1-3.7.8-1.6.8-1.9-.1-1.3-.7.4-1.8 2.2-2.6 4-1.5 3.8-5.7 6-12.8 6.9-6 .7-6.7 1.2-2.7 2.1 1.7.4 3.6 1.5 4.1 2.5.8 1.6 0 2.9-5.4 8.1-3.5 3.5-7.3 6.3-8.5 6.4-1.1.1-1.8-.2-1.5-.7.3-.4 0-.8-.5-.8-.6 0-1.1.4-1.1 1 0 .5-.9 1-1.9 1-1.1 0-2.3.5-2.7 1.2-.5.7-.3.8.7.3.8-.5.6.1-.4 1.3-1.9 2-1.8 2.1 2.4 4.1 2.3 1.2 4.4 1.9 4.7 1.6 1.1-1.1 3.2 2.7 3.2 6 0 2.5-.8 4.3-2.5 6-3 3.1-3.4 3.1-7.6.1-6.9-5-11.5-6.7-14.7-5.5-1.4.5-2.1.5-1.7 0 .3-.5-.1-1.5-.8-2.3-2-2-3.8-7.1-4-11.1-.1-2.1-.4-3.7-.7-3.7-.7 0-.5-10.4.5-22 1-13.1 3.2-16.2 9-12.4 2.5 1.6 2.5 1.6 2.5-1.2v-2.9l2.6 3.7c2.1 2.9 3.7 3.9 7.7 4.9 2.7.6 6.1 1.7 7.5 2.4 4.4 2.4 13.3 2.8 18.2 1 2.5-.9 6.1-2.3 8-3 4-1.4 8-7.3 8-11.7 0-3.1 2.5-4.2 7.6-3.6 2.5.3 2.9.7 2.7 3-.1 1.6.3 2.8.8 2.8.6 0 .8.4.5.8-.3.5.2 1.9 1.1 3.1 1.2 1.8 1.7 2 2.4 1 .6-1.1 1.6-.6 4.1 1.8 3.7 3.6 7.6 5.3 11.9 5.3 3.2 0 3.8-1.6 1.2-3.5-2.1-1.6-.9-3.5 2.3-3.5 2.2 0 2.3-.3 1.4-2-.9-1.7-.8-1.9.7-1.3 1 .4 2 1 2.3 1.3.3.4 2.3 1 4.5 1.4l4 .7-3.7-2.6c-2.1-1.4-4.8-3-6-3.5-1.9-.8-1.6-.9 1.2-.4 1.9.3 4.3 1.3 5.3 2.2.9.8 1.7 1.1 1.7.5 0-1.4-7.4-5.3-10.2-5.3-2.7 0-6.3-3.2-5.1-4.4.5-.4.8-1.3.8-1.9 0-1.7 16.4-1.4 20.4.3 4.7 1.9 4 4-1.3 4-7.3 0-6.8 1.5 1.7 4.9 1.5.6 2.7 1.8 2.7 2.8 0 1.5.1 1.5 1.4-.2 1.2-1.7 1.8-1.8 4.9-.8 3.6 1.1 3.6 1.1 2.1-1.1-.8-1.3-1.1-2.6-.7-3 .4-.4 0-.4-1 0-1.2.4-1.7.1-1.8-1.2-.1-1.1-.2-2.8-.3-3.8-.1-2.2-2.4-3-12.5-4.6-3.5-.6-7.7-1.8-9.4-2.7-2.1-1-6.5-1.7-13.1-1.9-10.1-.3-10.1-.3-10.2 2.2-.1 1.3.2 2.4.7 2.4 1.9 0 .8 1.9-1.3 2.2-3 .5-9.8-1.2-9.8-2.3 0-.5-.5-.9-1.1-.9-2 0-6.9-4.1-6.3-5.2.4-.6.2-.8-.4-.4-.6.3-1.3.2-1.7-.4-1-1.6-15.4-.4-21.5 1.8-3 1.1-9.1 3.2-13.5 4.7-4.4 1.4-9.8 3.5-12 4.6-2.2 1-4.8 1.9-5.8 1.9-2.7 0-4-4.7-3.2-11.5.4-3.3.9-7.4 1-9 1.2-10.2 8.2-24.2 16.9-33.2 10.4-11 13.7-12.7 26.1-12.9 5.5-.2 11.3-.7 12.8-1.3 2-.8 2.7-.7 2.7.2 0 .7.5.5 1-.5 1.1-1.9 3.8-1.8 5 .2.5.8 3 1.5 5.6 1.8 2.7.2 5.6.8 6.6 1.3 1.9 1 9.5.1 10.4-1.2.3-.5 1-.7 1.5-.3.5.3 2.1.8 3.5 1 10.2 1.9 22.1 13.7 30.4 30.3 4.9 9.9 6 13.7 7.1 25.1.5 5.8 1.2 11.8 1.4 13.5.2 1.6.4 3.7.5 4.5 0 1.1.3 1.1 1.1-.4 1.6-2.6.3-20.3-2.2-30-1.9-7.3-3.2-10.4-9.2-21-5.8-10.3-28.9-28.2-41.5-32.2-8.2-2.6-22.5-2.7-31.2-.3zm-8.6 73.7c3.4 2.6 2 3.9-4.9 4.5-3.3.2-7 .8-8.2 1.2-1.9.6-2.3.4-2.3-1.4 0-4.4 1.5-5.6 7.4-5.9 4.3-.2 6.2.1 8 1.6zm38.6.9c-3.3 2.2-4 3.3-4 6.3 0 2-.2 2.2-1 1-.5-.8-1-2.7-1-4.1 0-2.7 2.7-4.7 6.5-4.8 1.7-.1 1.7.1-.5 1.6zM223.5 103c-.3.5-1.2.7-2 .3-2.1-.7-1.9-1.3.6-1.3 1.1 0 1.8.4 1.4 1zm22 27.9c0 1.7-1 2.7-3.8 3.8-4.6 1.9-5.3 1.4-3.3-2.5 2.3-4.5 7.1-5.4 7.1-1.3zm-30.1 52.6c-.4.8-.8 1.5-1 1.5-.2 0-.4-.7-.4-1.5s.4-1.5 1-1.5c.5 0 .7.7.4 1.5zm4.9 7.9c.9-.5.9-.4.1.6-1.3 1.3-5.4.5-5.4-1.1 0-.6.8-.5 2 .1 1.1.6 2.6.8 3.3.4zm14.2 17.1c.6.6 2.4 1.6 4 2.2 1.9.6 3.1 1.7 3.3 3.2.4 2.5 2.4 3.6 4.9 2.7 1.4-.6 1.1-1.2-1.8-3.6-1.9-1.6-2.9-2.9-2.4-3 1.2 0 9.5 4.3 9.5 5 0 .3-1 1-2.2 1.5-4.4 2-6 6.7-6.9 20.8-1.5 22.3-1.9 27-2.4 27.5-.3.3-.5-1-.5-2.9-.1-2.8-.2-3.1-1.1-1.7-1.5 2.7-4.7 2.2-5.5-.6-.3-1.4-.3-3 .1-3.5.9-1.5 5.5-1.4 5.5.1 0 .9.4.7 1-.2.5-.9 1.2-8.1 1.6-16.1l.7-14.5-2.7-2.1c-1.4-1.2-2.6-2.6-2.6-3.2 0-.6-.6-1.1-1.3-1.1-1.4 0-6.7-5.6-6.7-7.1 0-.5-.4-.9-.8-.9s-.9-1.1-1-2.5c-.2-2.2.1-2.4 3.1-1.8 1.7.3 3.7 1.1 4.2 1.8zm57.3 19c-1.2 2.6-2.3 3.1-3.3 1.5-.9-1.4-5.8-1.3-7.3.2-1.4 1.4-2.4.7-1.3-1 .4-.7 3-1.7 5.7-2.1 7.8-1.3 7.5-1.4 6.2 1.4zm-31.4-.2c2.2 1.6 1.8 5.5-.6 7.1-4 2.4-8-4.4-4.2-7.1 1-.7 2.1-1.3 2.4-1.3.3 0 1.4.6 2.4 1.3zM217.1 246l12.4 16.4v6.7c0 3.7.3 6.5.7 6.3.5-.3.8.3.8 1.3 0 3 2.4 7.3 3.7 6.9.7-.3 1 .3.8 1.7-.3 1.2.8 4 2.4 6.6 4.6 7.4 7.9 16 9.5 25.1 3.3 18 4.4 25.8 5 33 .9 10.3 3.2 20.7 5.1 22.6 2.6 2.6 1.7 4-2.1 3.5-.9-.1-.9.9-.3 3.6.5 2.1 1.5 7.6 2.4 12.3.8 4.7 1.7 9.6 2 11 .3 1.4 1 4.7 1.5 7.5.5 2.7 1.7 8.4 2.5 12.5 3.9 18.5 5.2 60.8 2.2 66.5-.6 1.1-1.1 2.3-1.2 2.7 0 1-1.5 1.1-4 .2-1.1-.3-2.4-.7-3-.8-1-.1-2.8-9.1-4.3-21.8-.5-3.7-.5-6.5 0-6.2.4.3.8 1.2.8 2 0 2.6 3 7.4 4.5 7.4 1.2 0 1.4-.9.9-4.3-1.5-9.8-7.5-38.7-14.9-71.7-2-9.1-6.8-31.6-10.5-50-9.5-46.7-13.2-60.9-26.6-103.6-2.4-7.8-4.4-14.6-4.4-15 0-1.2.5-.5 14.1 17.6zm67.4-13c.3.5.2 1-.4 1-.5 0-1.3-.5-1.6-1-.3-.6-.2-1 .4-1 .5 0 1.3.4 1.6 1zm28 3.9c.3.5.2 1.2-.3 1.5-.5.3-.9-.1-.9-.9 0-1.7.3-1.9 1.2-.6zm4.5 6.1c0 .5-.2 1-.4 1-.3 0-.8-.5-1.1-1-.3-.6-.1-1 .4-1 .6 0 1.1.4 1.1 1zm13.5 2c-.3.5-1.2 1-1.8 1-.7 0-.6-.4.3-1 1.9-1.2 2.3-1.2 1.5 0zm-76.5 8.9c0 3.4-1.6 1.5-2.4-2.9-.5-3.2-.5-3.4.9-1.6.8 1.1 1.5 3.1 1.5 4.5zm86-1.1c2.9.6 3 1.9.3 3.1-1.6.7-3.6 1.7-4.5 2.2-2.3 1.2-3.3-.7-1.4-2.7.9-.8 1.6-2.5 1.6-3.7.1-1.9.2-2 1.3-.7.7.8 1.9 1.6 2.7 1.8zm-5 .6c0 .2-1.1.6-2.5.8-1.3.3-2.2.1-1.9-.3.5-.9 4.4-1.3 4.4-.5zm3 21.6c.8.5 1.2 1.2.9 1.5-.8.8-3.9-.5-3.9-1.6s1.1-1.1 3 .1zm84.4 30.3c.9 3.7 2.6 19.9 2.5 24.2-.1 3.9-.1 3.9-.9 1-2.3-8.8-3.7-19-2.6-19.7.6-.4.7-.8.1-.8-.5 0-1-1.6-1-3.5 0-4 1-4.6 1.9-1.2zm19.1 14.7c.3.5.1 1-.4 1-.6 0-1.1-.5-1.1-1 0-.6.2-1 .4-1 .3 0 .8.4 1.1 1zm9.3 8.5c-.3.3-.9-.2-1.2-1.2-.6-1.4-.5-1.5.5-.6.7.7 1 1.5.7 1.8zm4.2 10.4c-.1 1.7-3-3.6-3-5.3.1-1.6.5-1.2 1.5 1.3.8 1.8 1.5 3.6 1.5 4zm-30 1.6c0 3.7-.4 6.5-1 6.5-1.1 0-1.3-7.1-.4-10.8 1-3.7 1.4-2.5 1.4 4.3zm-37.6-1.4c.3.3-.4.5-1.4.6-1.1.1-2-.2-2-.7 0-.8 2.5-.8 3.4.1zm.1 4.2c0 .8.3 1.9.7 2.3.4.3.3 1.5-.3 2.5-.8 1.5-.6 1.7.7 1.2 1.1-.4 1.5-.2 1.1.4-.4.6-.3 1.3.2 1.5 1.3.5 2.4 4.8 1.2 4.8-.6 0-1.1.5-1.1 1.1 0 .5.4.8.8.5.5-.3.9 1.3 1 3.4.1 2.2-.2 4-.7 4-1.1 0-2.1-2.5-2.1-5.4 0-1.2-.5-2.7-1.1-3.3-.7-.7-.5-1.5.6-2.7 1.4-1.4 1.5-1.6.1-1.6-1.6 0-2.2-1.6-2.9-7.8-.2-2 0-3.1.7-2.9.6.2 1.1 1.1 1.1 2zM418 349c0 .5-.2 1-.4 1-.3 0-.8-.5-1.1-1-.3-.6-.1-1 .4-1 .6 0 1.1.4 1.1 1zm6.8 1.5c0 1.4-.5 2.5-1 2.5s-.6.4-.3 1c.3.5-.2 1-1.1 1-1.7 0-1.7.1-.1 1.3 1.6 1.1 1.7 1.9.8 6.7-.1.3-1-1.5-2.1-3.9-1.1-2.3-1.7-4.8-1.3-5.4.4-.6-.2-.8-1.8-.4-1.3.4-2.8.7-3.3.7-.4 0-.6 1-.3 2.1.4 1.5.3 1.9-.4 1.2-1.6-1.6-.6-4.8 1.4-4.5.9.2 1.7-.2 1.7-.7 0-.6.7-.7 1.7-.4 1.2.5 1.4.3.8-.8-.6-1.1-.5-1.2.6-.2 1.8 1.7 3.2 1.6 2.6-.1-.3-.8-.3-1.7 0-2 1.3-1.2 2.1-.5 2.1 1.9zM364 368c0 .5-.5 1-1.1 1-.5 0-.7-.5-.4-1 .3-.6.8-1 1.1-1 .2 0 .4.4.4 1zm-101 11.5c1.1 1.3 1 1.4-.4.9-.9-.3-1.6-1-1.6-1.5 0-1.3.6-1.1 2 .6zm155 1.9c0 .2-.9.6-2 .9-1.1.3-1.8.1-1.4-.4.5-.9 3.4-1.3 3.4-.5zm-55.6 18.2c.3.8.2 1.2-.4.9-.6-.3-1-1-1-1.6 0-1.4.7-1.1 1.4.7zm1.4 10.3c-.7 1.1-1.6 1.8-2 1.5-.4-.3-.2-1.1.5-1.9 1.8-2.1 2.9-1.8 1.5.4zM313 424c0 .5-.2 1-.4 1-.3 0-.8-.5-1.1-1-.3-.6-.1-1 .4-1 .6 0 1.1.4 1.1 1zm136.5 24c.3.5.1 1-.4 1-.6 0-1.1-.5-1.1-1 0-.6.2-1 .4-1 .3 0 .8.4 1.1 1zM302 496c1.1 1.1 2 2.6 2 3.3 0 3.7-6.2 5.1-8 1.8-1.4-2.7-1.3-3.7.6-5.5 2-2.1 3-2 5.4.4z"/><path d="M227.3 266.5c0 .8.4 1.2.9.9.5-.3.6-1 .3-1.5-.9-1.3-1.2-1.1-1.2.6zM257.6 488.8c-.3.5.1.9.9.9s1.2-.4.9-.9c-.3-.4-.7-.8-.9-.8-.2 0-.6.4-.9.8zM4.3 50.7c.9.2 2.5.2 3.5 0 .9-.3.1-.5-1.8-.5-1.9 0-2.7.2-1.7.5zM14.7 50.7c2.4.2 6.2.2 8.5 0 2.4-.2.5-.4-4.2-.4s-6.6.2-4.3.4zM44.8 50.7c1.8.2 4.5.2 6 0s0-.4-3.3-.4-4.5.2-2.7.4zM322 95.4c0 1.9.5 3.8 1.1 4.2.6.3 1.7 2 2.5 3.8l1.4 3.1-.2-3.5c-.2-1.9-.9-4.1-1.5-4.8-.7-.7-1.3-2.2-1.3-3.2s-.4-2.2-1-2.5c-.6-.4-1 .8-1 2.9zM202.6 103.8c-.6 1.1 2.7 9.6 6 15.5 3.4 6.1 3.8 2.4.4-4.2-1.6-3.3-3-6.9-3-7.9 0-2.3-2.5-4.8-3.4-3.4zM326.2 109.5c0 1.6.2 2.2.5 1.2.2-.9.2-2.3 0-3-.3-.6-.5.1-.5 1.8zM330.2 108.3c-.9 1.1-1.1 3-.6 6.2.9 6.3 2.6 4.3 2.2-2.5-.3-4.6-.5-5.1-1.6-3.7zM278.7 120.4c.3 1.8 0 4.3-.6 5.5-1 1.8-.9 2.1.6 2.1.9 0 3.8 2.1 6.4 4.6 2.6 2.6 5.1 4.4 5.7 4 1.5-.9.1-5.9-2.7-9.3-5.1-6.1-7.1-8.8-7.1-9.6 0-.4-.6-.7-1.4-.7-1.1 0-1.3.9-.9 3.4zM266.6 121.8c-.9 1.5 3.3 7.2 5.4 7.2 2.8 0 2.8-5.5.1-7-2.4-1.2-4.8-1.3-5.5-.2zM327.1 122.6c0 1.1.3 1.4.6.6.3-.7.2-1.6-.1-1.9-.3-.4-.6.2-.5 1.3zM391.9 137.4c-.2.2-13.9.7-30.4 1.1-16.5.4-30.2.9-30.4 1-.1.2 0 .8.3 1.4.4.6 5.3.8 13.4.5 7-.2 22.2-.6 33.7-.8 19.5-.4 47.5-2.2 48.4-3.2.2-.2-7.4-.4-17.1-.4-9.6 0-17.7.2-17.9.4zM327.6 154.7c-.6 1.4-.5 1.5.5.6.7-.7 1-1.5.7-1.8-.3-.3-.9.2-1.2 1.2zM326.5 159.1c-.4.6-.5 1.2-.2 1.5.2.3.7-.2 1-1.1.7-1.7.1-2-.8-.4zM294 160.5c0 .9.5 1.5 1.1 1.3.6-.2 1.1-.8 1.1-1.3s-.5-1.1-1.1-1.3c-.6-.2-1.1.4-1.1 1.3zM294.7 167.7c-1.2 1.1-.7 3.3.7 3.3.7 0 1.6-.9 1.9-2 .5-1.9-1.2-2.8-2.6-1.3zM317.8 175.5c-.4 2-.2 2.3.8 1.4.7-.6 1-1.7.7-2.5-.7-2-1-1.8-1.5 1.1zM243.5 203c.4.6 1.1.8 1.6.5 1.4-.9 1.1-1.5-.7-1.5-.8 0-1.2.5-.9 1zM1.8 217.7c.7.3 1.6.2 1.9-.1.4-.3-.2-.6-1.3-.5-1.1 0-1.4.3-.6.6zM291.5 280.3c-.8 2.1-2.2 5.3-3 7.3-.8 2-1.5 5.5-1.5 7.8.1 4.1 2.3 9.6 3.2 8 1-1.6 4.1-25.4 3.4-26.1-.3-.3-1.3 1-2.1 3zM285 303.5c0 .8.4 1.5.8 1.5.5 0 .9-.7.9-1.5s-.4-1.5-.9-1.5c-.4 0-.8.7-.8 1.5zM269.2 347c0 1.9.2 2.7.5 1.7.2-.9.2-2.5 0-3.5-.3-.9-.5-.1-.5 1.8zM276.2 403c0 1.4.2 1.9.5 1.2.2-.6.2-1.8 0-2.5-.3-.6-.5-.1-.5 1.3zM277.2 414.5c0 1.6.2 2.2.5 1.2.2-.9.2-2.3 0-3-.3-.6-.5.1-.5 1.8zM297.7 430.7c-.4.3-.7 1.3-.7 2.1 0 1.8 1.3.7 1.6-1.3.2-1.7.1-1.8-.9-.8zM279.2 434c0 1.4.2 1.9.5 1.2.2-.6.2-1.8 0-2.5-.3-.6-.5-.1-.5 1.3zM280.2 447c0 1.9.2 2.7.5 1.7.2-.9.2-2.5 0-3.5-.3-.9-.5-.1-.5 1.8zM386.9 463.1c-.5.3-1.1 1.6-1.2 2.7-.1 1.5-.8 2.2-2.2 2.2-1.7.1-1.4.6 1.9 3.5 6.3 5.6 15.3 5.8 20.2.4 1.7-1.9 1.6-2.1-1-4.8-3.8-4-14-6.3-17.7-4zm13.1 4.4c-.7.8-1.9 1.5-2.6 1.5-.7 0-2 1.2-2.7 2.6-.8 1.5-1.7 2.3-2 1.8-.9-1.5.4-6.3 1.7-5.8.6.2 2.2-.2 3.6-.9 3-1.6 3.8-1.3 2 .8zM411.1 471.2c2.3 3.9 2.9 5.9 2.5 8.2-.4 1.7-.7 5-.7 7.4-.1 2.3-.5 4.5-1 4.7-.4.3-.6 1.2-.3 2 .3.7-.3 1.8-1.4 2.4-1 .6-3.2 3.5-4.7 6.6-1.6 3-3.4 6-4.2 6.6-2.8 2.4-.9 2.9 10.1 2.9h11.3l4.2-4.6c9.4-10.2 9.3-17.1-.7-28.5-3.7-4.2-15.4-12.9-17.3-12.9-.5 0 .5 2.3 2.2 5.2zM381.1 479.4c.8.7 3.3 1.8 5.6 2.5 5 1.4 12.3 6.7 14 10.1 1.2 2.4 1.3 2.4 1.3-1.3 0-2-.4-3.7-.8-3.7-.5 0-2.4-1.4-4.2-3-3.3-2.9-4.6-3.4-8.3-3-1 .1-2.4-.3-3-.8-.7-.5-2.3-1.2-3.6-1.5-2-.5-2.2-.4-1 .7zM500.7 505.4c-.4.9-1.1 1.5-1.6 1.1-.5-.3-1.2-.1-1.6.5-.9 1.4 1.8 1.2 3.4-.3 1.5-1.3 1.5-1.3-.6 4-.3 1 .7.5 2.4-1.3 2.6-2.7 3.1-2.9 4.1-1.5.8 1.1.8.7 0-1.2-1.1-2.8-1.2-2.8-2.3-.7l-1.1 2.1-1-2.2c-.9-2-1.1-2.1-1.7-.5zM358.9 508.2c-1.7 2.4-1.8 2.9-.6 1.9 1.8-1.4 4.2-5.1 3.3-5.1-.3 0-1.5 1.5-2.7 3.2zM321.7 506.7c-1.1 1-.8 5.3.3 5.3.6 0 1-1.3 1-3 0-3.1-.2-3.5-1.3-2.3zM339 509c-.6 1.2-.9 2.4-.7 2.7.3.2 1.1-.5 1.7-1.7.6-1.2.9-2.4.7-2.7-.3-.2-1.1.5-1.7 1.7z"/></svg>